REM DIRINDEX 1\8,1\2\11,1\3\12,1\3\14,1\5\15,1\5\16,1\6\17,1\6\18,1\4\19,1\4\20,1\4\21,1\4\22,1\7\23,1\7\24,1\7\25,1\2\9\26,1\2\9\27,1\2\10\28,1\2\10\29,1\2\10\30,1\2\10\31,1\2\10\32,1\3\13\33,1\3\13\34,1\3\13\35
REM DIRNAME folder01,folder02,folder03,folder04,folder05,folder06,folder07,folder08,folder09,folder10,folder11,folder12,folder13,folder14,folder15,folder16,folder17,folder18,folder19,folder20,folder21,folder22,folder23,folder24,folder25,folder26,folder27,folder28,folder29,folder30,folder31,folder32,folder33,folder34,folder35
TITLE ""
FILE "1-15 015_UNIT2_SET1.mp3" MP3
  TRACK 01 AUDIO
    TITLE "11:cjc123_0671"
    INDEX 01 00:00:00
  TRACK 02 AUDIO
    TITLE "0:"
    INDEX 01 00:02:47
  TRACK 03 AUDIO
    TITLE "28:cjc123_0672"
    INDEX 01 00:03:29
  TRACK 04 AUDIO
    TITLE "0:"
    INDEX 01 00:04:38
  TRACK 05 AUDIO
    TITLE "29:cjc123_0673"
    INDEX 01 00:04:52
  TRACK 06 AUDIO
    TITLE "0:"
    INDEX 01 00:06:10
  TRACK 07 AUDIO
    TITLE "30:cjc123_0674"
    INDEX 01 00:06:20
  TRACK 08 AUDIO
    TITLE "0:"
    INDEX 01 00:07:21
  TRACK 09 AUDIO
    TITLE "31:cjc123_0675"
    INDEX 01 00:08:07
  TRACK 10 AUDIO
    TITLE "0:"
    INDEX 01 00:11:44
  TRACK 11 AUDIO
    TITLE "32:cjc123_0676"
    INDEX 01 00:12:09
  TRACK 12 AUDIO
    TITLE "0:"
    INDEX 01 00:15:66
  TRACK 13 AUDIO
    TITLE "28:cjc123_0677"
    INDEX 01 00:16:42
  TRACK 14 AUDIO
    TITLE "0:"
    INDEX 01 00:17:55
  TRACK 15 AUDIO
    TITLE "29:cjc123_0678"
    INDEX 01 00:17:69
  TRACK 16 AUDIO
    TITLE "0:"
    INDEX 01 00:19:07
  TRACK 17 AUDIO
    TITLE "30:cjc123_0679"
    INDEX 01 00:19:16
  TRACK 18 AUDIO
    TITLE "0:"
    INDEX 01 00:20:16
  TRACK 19 AUDIO
    TITLE "31:cjc123_0680"
    INDEX 01 00:21:08
  TRACK 20 AUDIO
    TITLE "0:"
    INDEX 01 00:24:69
  TRACK 21 AUDIO
    TITLE "32:cjc123_0681"
    INDEX 01 00:25:03
  TRACK 22 AUDIO
    TITLE "0:"
    INDEX 01 00:27:67
  TRACK 23 AUDIO
    TITLE "28:cjc123_0682"
    INDEX 01 00:28:49
  TRACK 24 AUDIO
    TITLE "0:"
    INDEX 01 00:29:36
  TRACK 25 AUDIO
    TITLE "29:cjc123_0683"
    INDEX 01 00:29:56
  TRACK 26 AUDIO
    TITLE "0:"
    INDEX 01 00:30:73
  TRACK 27 AUDIO
    TITLE "30:cjc123_0684"
    INDEX 01 00:31:16
  TRACK 28 AUDIO
    TITLE "0:"
    INDEX 01 00:32:07
  TRACK 29 AUDIO
    TITLE "31:cjc123_0685"
    INDEX 01 00:32:56
  TRACK 30 AUDIO
    TITLE "0:"
    INDEX 01 00:35:37
  TRACK 31 AUDIO
    TITLE "32:cjc123_0686"
    INDEX 01 00:35:66
  TRACK 32 AUDIO
    TITLE "0:"
    INDEX 01 00:39:13
  TRACK 33 AUDIO
    TITLE "28:cjc123_0687"
    INDEX 01 00:39:60
  TRACK 34 AUDIO
    TITLE "0:"
    INDEX 01 00:40:64
  TRACK 35 AUDIO
    TITLE "29:cjc123_0688"
    INDEX 01 00:40:73
  TRACK 36 AUDIO
    TITLE "0:"
    INDEX 01 00:42:12
  TRACK 37 AUDIO
    TITLE "30:cjc123_0689"
    INDEX 01 00:42:16
  TRACK 38 AUDIO
    TITLE "0:"
    INDEX 01 00:43:15
  TRACK 39 AUDIO
    TITLE "31:cjc123_0690"
    INDEX 01 00:43:62
  TRACK 40 AUDIO
    TITLE "0:"
    INDEX 01 00:46:15
  TRACK 41 AUDIO
    TITLE "32:cjc123_0691"
    INDEX 01 00:46:54
  TRACK 42 AUDIO
    TITLE "0:"
    INDEX 01 00:49:23
  TRACK 43 AUDIO
    TITLE "28:cjc123_0692"
    INDEX 01 00:50:01
  TRACK 44 AUDIO
    TITLE "0:"
    INDEX 01 00:51:52
  TRACK 45 AUDIO
    TITLE "29:cjc123_0693"
    INDEX 01 00:51:65
  TRACK 46 AUDIO
    TITLE "0:"
    INDEX 01 00:53:04
  TRACK 47 AUDIO
    TITLE "30:cjc123_0694"
    INDEX 01 00:53:19
  TRACK 48 AUDIO
    TITLE "0:"
    INDEX 01 00:54:64
  TRACK 49 AUDIO
    TITLE "31:cjc123_0695"
    INDEX 01 00:55:40
  TRACK 50 AUDIO
    TITLE "0:"
    INDEX 01 00:58:60
  TRACK 51 AUDIO
    TITLE "32:cjc123_0696"
    INDEX 01 00:59:22
  TRACK 52 AUDIO
    TITLE "0:"
    INDEX 01 01:01:52
  TRACK 53 AUDIO
    TITLE "28:cjc123_0697"
    INDEX 01 01:02:30
  TRACK 54 AUDIO
    TITLE "0:"
    INDEX 01 01:03:39
  TRACK 55 AUDIO
    TITLE "29:cjc123_0698"
    INDEX 01 01:03:51
  TRACK 56 AUDIO
    TITLE "0:"
    INDEX 01 01:05:19
  TRACK 57 AUDIO
    TITLE "30:cjc123_0699"
    INDEX 01 01:05:28
  TRACK 58 AUDIO
    TITLE "0:"
    INDEX 01 01:06:36
  TRACK 59 AUDIO
    TITLE "31:cjc123_0700"
    INDEX 01 01:07:12
  TRACK 60 AUDIO
    TITLE "0:"
    INDEX 01 01:10:35
  TRACK 61 AUDIO
    TITLE "32:cjc123_0701"
    INDEX 01 01:11:02
  TRACK 62 AUDIO
    TITLE "0:"
    INDEX 01 01:14:39
  TRACK 63 AUDIO
    TITLE "28:cjc123_0702"
    INDEX 01 01:15:11
  TRACK 64 AUDIO
    TITLE "0:"
    INDEX 01 01:16:14
  TRACK 65 AUDIO
    TITLE "29:cjc123_0703"
    INDEX 01 01:16:26
  TRACK 66 AUDIO
    TITLE "0:"
    INDEX 01 01:17:35
  TRACK 67 AUDIO
    TITLE "30:cjc123_0704"
    INDEX 01 01:17:45
  TRACK 68 AUDIO
    TITLE "0:"
    INDEX 01 01:18:45
  TRACK 69 AUDIO
    TITLE "31:cjc123_0705"
    INDEX 01 01:19:19
  TRACK 70 AUDIO
    TITLE "0:"
    INDEX 01 01:22:64
  TRACK 71 AUDIO
    TITLE "32:cjc123_0706"
    INDEX 01 01:23:40
  TRACK 72 AUDIO
    TITLE "0:"
    INDEX 01 01:27:55
  TRACK 73 AUDIO
    TITLE "28:cjc123_0707"
    INDEX 01 01:27:67
  TRACK 74 AUDIO
    TITLE "0:"
    INDEX 01 01:28:61
  TRACK 75 AUDIO
    TITLE "29:cjc123_0708"
    INDEX 01 01:29:03
  TRACK 76 AUDIO
    TITLE "0:"
    INDEX 01 01:30:03
  TRACK 77 AUDIO
    TITLE "30:cjc123_0709"
    INDEX 01 01:30:11
  TRACK 78 AUDIO
    TITLE "0:"
    INDEX 01 01:31:10
  TRACK 79 AUDIO
    TITLE "31:cjc123_0710"
    INDEX 01 01:31:57
  TRACK 80 AUDIO
    TITLE "0:"
    INDEX 01 01:35:18
  TRACK 81 AUDIO
    TITLE "32:cjc123_0711"
    INDEX 01 01:35:49
  TRACK 82 AUDIO
    TITLE "0:"
    INDEX 01 01:39:66
  TRACK 83 AUDIO
    TITLE "28:cjc123_0712"
    INDEX 01 01:40:36
  TRACK 84 AUDIO
    TITLE "0:"
    INDEX 01 01:41:52
  TRACK 85 AUDIO
    TITLE "29:cjc123_0713"
    INDEX 01 01:41:69
  TRACK 86 AUDIO
    TITLE "0:"
    INDEX 01 01:42:63
  TRACK 87 AUDIO
    TITLE "30:cjc123_0714"
    INDEX 01 01:42:73
  TRACK 88 AUDIO
    TITLE "0:"
    INDEX 01 01:44:13
  TRACK 89 AUDIO
    TITLE "31:cjc123_0715"
    INDEX 01 01:44:58
  TRACK 90 AUDIO
    TITLE "0:"
    INDEX 01 01:48:58
  TRACK 91 AUDIO
    TITLE "32:cjc123_0716"
    INDEX 01 01:49:16
  TRACK 92 AUDIO
    TITLE "0:"
    INDEX 01 01:53:33
  TRACK 93 AUDIO
    TITLE "28:cjc123_0717"
    INDEX 01 01:54:07
  TRACK 94 AUDIO
    TITLE "0:"
    INDEX 01 01:55:16
  TRACK 95 AUDIO
    TITLE "29:cjc123_0718"
    INDEX 01 01:55:34
  TRACK 96 AUDIO
    TITLE "0:"
    INDEX 01 01:56:55
  TRACK 97 AUDIO
    TITLE "30:cjc123_0719"
    INDEX 01 01:56:65
  TRACK 98 AUDIO
    TITLE "0:"
    INDEX 01 01:57:68
  TRACK 99 AUDIO
    TITLE "31:cjc123_0720"
    INDEX 01 01:58:52
  TRACK 100 AUDIO
    TITLE "0:"
    INDEX 01 02:02:46
  TRACK 101 AUDIO
    TITLE "32:cjc123_0721"
    INDEX 01 02:03:10
  TRACK 102 AUDIO
    TITLE "0:"
    INDEX 01 02:06:67
  TRACK 103 AUDIO
    TITLE "28:cjc123_0722"
    INDEX 01 02:07:41
  TRACK 104 AUDIO
    TITLE "0:"
    INDEX 01 02:08:56
  TRACK 105 AUDIO
    TITLE "29:cjc123_0723"
    INDEX 01 02:09:01
  TRACK 106 AUDIO
    TITLE "0:"
    INDEX 01 02:10:30
  TRACK 107 AUDIO
    TITLE "30:cjc123_0724"
    INDEX 01 02:10:40
  TRACK 108 AUDIO
    TITLE "0:"
    INDEX 01 02:11:43
  TRACK 109 AUDIO
    TITLE "31:cjc123_0725"
    INDEX 01 02:12:23
  TRACK 110 AUDIO
    TITLE "0:"
    INDEX 01 02:16:07
  TRACK 111 AUDIO
    TITLE "32:cjc123_0726"
    INDEX 01 02:16:42
  TRACK 112 AUDIO
    TITLE "0:"
    INDEX 01 02:20:28
  TRACK 113 AUDIO
    TITLE "28:cjc123_0727"
    INDEX 01 02:21:02
  TRACK 114 AUDIO
    TITLE "0:"
    INDEX 01 02:22:25
  TRACK 115 AUDIO
    TITLE "29:cjc123_0728"
    INDEX 01 02:22:45
  TRACK 116 AUDIO
    TITLE "0:"
    INDEX 01 02:24:04
  TRACK 117 AUDIO
    TITLE "30:cjc123_0729"
    INDEX 01 02:24:10
  TRACK 118 AUDIO
    TITLE "0:"
    INDEX 01 02:25:23
  TRACK 119 AUDIO
    TITLE "31:cjc123_0730"
    INDEX 01 02:25:72
  TRACK 120 AUDIO
    TITLE "0:"
    INDEX 01 02:29:58
  TRACK 121 AUDIO
    TITLE "32:cjc123_0731"
    INDEX 01 02:30:15
  TRACK 122 AUDIO
    TITLE "0:"
    INDEX 01 02:33:07
  TRACK 123 AUDIO
    TITLE "28:cjc123_0732"
    INDEX 01 02:33:46
  TRACK 124 AUDIO
    TITLE "0:"
    INDEX 01 02:34:54
  TRACK 125 AUDIO
    TITLE "29:cjc123_0733"
    INDEX 01 02:34:64
  TRACK 126 AUDIO
    TITLE "0:"
    INDEX 01 02:36:43
  TRACK 127 AUDIO
    TITLE "30:cjc123_0734"
    INDEX 01 02:36:55
  TRACK 128 AUDIO
    TITLE "0:"
    INDEX 01 02:37:64
  TRACK 129 AUDIO
    TITLE "31:cjc123_0735"
    INDEX 01 02:38:34
  TRACK 130 AUDIO
    TITLE "0:"
    INDEX 01 02:42:18
  TRACK 131 AUDIO
    TITLE "32:cjc123_0736"
    INDEX 01 02:42:49
  TRACK 132 AUDIO
    TITLE "0:"
    INDEX 01 02:47:03
  TRACK 133 AUDIO
    TITLE "28:cjc123_0737"
    INDEX 01 02:47:47
  TRACK 134 AUDIO
    TITLE "0:"
    INDEX 01 02:48:64
  TRACK 135 AUDIO
    TITLE "29:cjc123_0738"
    INDEX 01 02:49:04
  TRACK 136 AUDIO
    TITLE "0:"
    INDEX 01 02:50:27
  TRACK 137 AUDIO
    TITLE "30:cjc123_0739"
    INDEX 01 02:50:35
  TRACK 138 AUDIO
    TITLE "0:"
    INDEX 01 02:51:52
  TRACK 139 AUDIO
    TITLE "31:cjc123_0740"
    INDEX 01 02:52:32
  TRACK 140 AUDIO
    TITLE "0:"
    INDEX 01 02:55:54
  TRACK 141 AUDIO
    TITLE "32:cjc123_0741"
    INDEX 01 02:56:12
  TRACK 142 AUDIO
    TITLE "0:"
    INDEX 01 03:00:55
  TRACK 143 AUDIO
    TITLE "28:cjc123_0742"
    INDEX 01 03:01:23
  TRACK 144 AUDIO
    TITLE "0:"
    INDEX 01 03:02:25
  TRACK 145 AUDIO
    TITLE "29:cjc123_0743"
    INDEX 01 03:02:40
  TRACK 146 AUDIO
    TITLE "0:"
    INDEX 01 03:04:10
  TRACK 147 AUDIO
    TITLE "30:cjc123_0744"
    INDEX 01 03:04:20
  TRACK 148 AUDIO
    TITLE "0:"
    INDEX 01 03:05:25
  TRACK 149 AUDIO
    TITLE "31:cjc123_0745"
    INDEX 01 03:06:01
  TRACK 150 AUDIO
    TITLE "0:"
    INDEX 01 03:10:18
  TRACK 151 AUDIO
    TITLE "32:cjc123_0746"
    INDEX 01 03:10:57
  TRACK 152 AUDIO
    TITLE "0:"
    INDEX 01 03:15:10
